# xmcd
#
# Track frame offsets:
#	150
#	15990
#	31022
#	51862
#	67375
#	81337
#	97842
#	113682
#	136390
#	147315
#	161060
#	174205
#	189910
#	208452
#	225155
#	239162
#
# Disc length: 3428 seconds
# Revision: 2
# Processed by: cddbd v1.5.2PL0 Copyright (c) Steve Scherf et al.
# Submitted via: dBpowerAMP V12.0
#
DISCID=d50d6210
DTITLE=Kid Ramos - Two Hands One Heart
DYEAR=1995
DGENRE=Blues
TTITLE0=I Can't Stop it
TTITLE1=Everything I do is Wrong
TTITLE2=You Don't Love me
TTITLE3=So Good to my Baby
TTITLE4=Done Deal
TTITLE5=Baby Look at You
TTITLE6=I Was a Fool
TTITLE7=If You Don't Think I'm Sinking
TTITLE8=Two Hands One Heart
TTITLE9=You Don't Know
TTITLE10=It's Been a Long Time
TTITLE11=Win With me
TTITLE12=Just Like a Woman
TTITLE13=Ain't Gonna Quit You Baby
TTITLE14=Tell me What's The Reason
TTITLE15=Roll Mr. Jelly
EXTD=
EXTT0=
EXTT1=
EXTT2=
EXTT3=
EXTT4=
EXTT5=
EXTT6=
EXTT7=
EXTT8=
EXTT9=
EXTT10=
EXTT11=
EXTT12=
EXTT13=
EXTT14=
EXTT15=
PLAYORDER=
